
<svg xmlns="http://www.w3.org/2000/svg" version="1.1" xmlns:xlink="http://www.w3.org/1999/xlink" preserveAspectRatio="none" x="0px" y="0px" width="210px" height="630px" viewBox="0 0 210 630">
<defs>
<g id="Layer0_0_MEMBER_0_MEMBER_0_MEMBER_0_FILL">
<path fill="#FF0000" fill-opacity="0" stroke="none" d="
M 70 490
L 0 490 0 560 70 560 70 490 Z"/>
</g>

<g id="Layer0_1_MEMBER_0_MEMBER_0_MEMBER_0_FILL">
<path fill="#FFFFFF" stroke="none" d="
M 35 500.5
L 33.5 500.65 17 509 33.5 517.5 33.5 522 36.5 522 36.5 500.65 35 500.5
M 52.25 542.3
Q 59.5 535.3 59.5 525
L 59.5 524.85 10.5 524.85 10.5 525
Q 10.5 535.35 17.7 542.3 24.55 549.5 35 549.5 45.25 549.5 52.25 542.3 Z"/>
</g>

<g id="Layer0_2_MEMBER_0_MEMBER_0_MEMBER_0_FILL">
<path fill="#FF0000" fill-opacity="0" stroke="none" d="
M 210 490
L 210 420 140 420 140 490 210 490 Z"/>
</g>

<g id="Layer0_3_MEMBER_0_MEMBER_0_MEMBER_0_FILL">
<path fill="#FFFFFF" stroke="none" d="
M 163.55 460.8
Q 163.55 459.8 162.6 458.75 161.65 457.9 160.55 457.9 159.35 457.9 158.35 458.75 157.6 459.65 157.6 460.8 157.6 462.1 158.35 463 159.3 463.8 160.55 463.8 161.75 463.8 162.6 463 163.55 462.05 163.55 460.8
M 192.85 467.8
Q 192.85 463.35 189.55 459.9 186.15 456.65 181.6 456.65 179.2 456.65 177.35 457.5
L 170.55 469
Q 170.95 473.15 173.75 475.8 176.9 479.25 181.6 479.25 186.25 479.25 189.55 475.8 192.85 472.65 192.85 467.8
M 196.1 436.55
Q 195.3 434.55 194.6 433.55 190.4 426.4 184.1 436.3
L 161.1 475.9
Q 154.85 479.05 151.1 476.15 154.9 479.85 158.1 479.55
L 159.6 479.3
Q 161.4 478.7 163.1 476.5
L 187.1 435.8
Q 188.05 434.55 189.1 434.25 190.6 434.05 192.35 436 192.95 436.6 193.6 437.65 195.85 441.3 193.3 445.65 193.15 445.75 193.05 446.3 195 443.5 195.85 441.15
L 196 441
Q 196.85 438.65 196.1 436.55
M 165.1 440
Q 165.1 442.95 167.05 444.75 168.9 446.8 171.85 446.8 174.5 446.8 176.5 444.75 178.55 442.8 178.55 440 178.55 437.45 176.5 435.25 174.5 433.3 171.85 433.3 168.95 433.3 167.05 435.25 165.1 437.35 165.1 440 Z"/>
</g>

<g id="Layer0_4_MEMBER_0_MEMBER_0_MEMBER_0_FILL">
<path fill="#FF0000" fill-opacity="0" stroke="none" d="
M 140 490
L 140 420 70 420 70 490 140 490 Z"/>
</g>

<g id="Layer0_5_MEMBER_0_MEMBER_0_MEMBER_0_FILL">
<path fill="#FFFFFF" stroke="none" d="
M 131 439.65
Q 127.25 434.75 121.9 434.75 121.05 434.75 119.55 435 119.45 434.7 118.75 433.65 115.25 429.25 110.75 429.25 105.9 429.25 102.65 433.65 101.55 435.15 100.8 436.75 103.25 435.15 106 435.15 110.5 435.15 114 439.5 115.4 441.55 116.3 443.65 118.15 442.65 120.3 442.65 124.55 442.65 127.55 446.55 129.7 449.4 130.3 452.55
L 131.75 452.4
Q 133.35 452.4 134.6 453.15
L 134.75 449 134.6 449
Q 134.1 443.8 131 439.65
M 111.5 444.15
Q 108.15 439.8 103.4 439.8 98.8 439.8 95.4 444.15
L 94.5 445.5
Q 92.9 445.25 92.25 445.25 86.9 445.25 83.15 450.15 80.1 454.25 79.5 459.5
L 79 459.5
Q 76.8 459.5 75.25 460.9 77.55 467.15 82.3 471.75 91.3 480.8 104.05 480.8 116.75 480.8 125.65 471.75 131.25 466.4 133.5 459 131.6 457 129.25 457 128.65 457 127.75 457.25 127 453.8 125.05 451.25 122.05 447.25 117.8 447.25 116 447.25 113.75 448.3 112.8 446.15 111.5 444.15 Z"/>
</g>

<g id="Layer0_6_MEMBER_0_MEMBER_0_MEMBER_0_FILL">
<path fill="#FF0000" fill-opacity="0" stroke="none" d="
M 0 490
L 70 490 70 420 0 420 0 490 Z"/>
</g>

<g id="Layer0_7_MEMBER_0_MEMBER_0_MEMBER_0_FILL">
<path fill="#FFFFFF" stroke="none" d="
M 58.25 442.9
Q 58.25 441 56 440
L 28.7 427.75
Q 27.5 427.4 27.25 427.4 25.35 427.2 24.6 429.4
L 11.5 465.65
Q 11.25 466.2 11.25 466.9
L 11.25 467
Q 11.25 468.85 13.55 469.9
L 42.25 482.5
Q 44.2 482.7 44.95 480.5
L 58 444.25
Q 58.25 443.6 58.25 442.9
M 25.25 443.4
Q 24 442.9 24.5 441.75
L 26.5 436.15
Q 26.95 435.05 28.2 435.5
L 51.75 445.9
Q 52.9 446.6 52.5 447.65
L 50.5 453.3
Q 50.05 454.65 48.9 453.9
L 25.25 443.4
M 33.15 455.4
Q 33.5 455.55 34 456.25 34.3 456.9 34 457.5 33.95 458.1 33.25 458.25 32.55 458.45 32 458.3
L 21.85 453.75
Q 21.15 453.3 21 452.8 20.7 452.2 20.85 451.65 21.25 451 21.6 450.9 22.35 450.6 22.95 450.9
L 33.15 455.4
M 33 464.9
Q 32.4 465.05 31.85 464.8
L 19.85 459.4
Q 19.15 459.1 19 458.5 18.6 457.95 18.95 457.4 19.1 456.8 19.7 456.5 20.2 456.35 20.85 456.65
L 32.9 461.9
Q 33.6 462.5 33.75 462.8 34.05 463.5 33.9 464 33.6 464.65 33 464.9
M 17.75 465.15
Q 17.2 464.9 16.75 464.25 16.55 463.75 16.75 463.15 16.9 462.55 17.6 462.3 18.2 462.15 18.75 462.3
L 41.15 472.25
Q 41.8 472.65 42 473.15 42.35 473.8 42 474.25 41.9 475.1 41.25 475.15 40.65 475.5 40 475.15
L 17.75 465.15 Z"/>
</g>

<g id="Layer0_8_MEMBER_0_MEMBER_0_MEMBER_0_FILL">
<path fill="#FF0000" fill-opacity="0" stroke="none" d="
M 210 560
L 210 490 140 490 140 560 210 560 Z"/>
</g>

<g id="Layer0_9_MEMBER_0_MEMBER_0_MEMBER_0_FILL">
<path fill="#FFFFFF" stroke="none" d="
M 192 542
Q 199 535.1 199 525.05 199 515.25 192 508.15 184.95 501.15 175 501.15 165.1 501.15 158.1 508.15 151.1 515.15 151.1 525.05 151.1 535.15 158.1 542 165 549.05 175 549.05 185 549.05 192 542
M 193.9 525
Q 193.9 532.9 188.3 538.35 182.8 544 175 544 167.2 544 161.6 538.35 156.1 532.95 156.1 525 156.1 517.3 161.6 511.65 167.25 506.15 175 506.15 182.75 506.15 188.3 511.65 193.9 517.35 193.9 525
M 181.35 518.7
Q 178.65 516.05 175 516.05 171.35 516.05 168.6 518.7 166 521.4 166 525 166 528.75 168.6 531.5 171.3 534.05 175 534.05 178.75 534.05 181.35 531.5 184 528.8 184 525 184 521.45 181.35 518.7 Z"/>
</g>

<g id="Layer0_10_MEMBER_0_MEMBER_0_MEMBER_0_FILL">
<path fill="#FF0000" fill-opacity="0" stroke="none" d="
M 140 490
L 70 490 70 560 140 560 140 490 Z"/>
</g>

<g id="Layer0_11_MEMBER_0_MEMBER_0_MEMBER_0_FILL">
<path fill="#FFFFFF" stroke="none" d="
M 123.5 543.75
Q 124.65 542.65 126.4 540.5 126.65 534.95 125.5 530.25 121.1 531.55 117.5 528.8 120.7 528.75 124.05 525.75 119.1 513.45 104.15 503.65 103.75 511.6 100.65 519.05 104.6 521.25 108.75 520.2 104.8 525.2 98.75 524.25 96.15 529.15 90.25 535.5 98.5 538.25 107.75 538.25 100.1 543.2 87.55 538.25 84.5 541.1 84.3 541.25 85.65 542.85 86.55 543.75 94.3 551.5 105.05 551.5 115.9 551.5 123.5 543.75 Z"/>
</g>

<g id="Layer0_12_MEMBER_0_MEMBER_0_MEMBER_0_FILL">
<path fill="#FF0000" fill-opacity="0" stroke="none" d="
M 70 560
L 0 560 0 630 70 630 70 560 Z"/>
</g>

<g id="Layer0_13_MEMBER_0_MEMBER_0_MEMBER_0_FILL">
<path fill="#FFFFFF" stroke="none" d="
M 62.2 611.45
Q 62.2 611.25 62 610.75
L 53.25 595.5 50.75 595.5 59.5 610.75
Q 59.7 611.25 59.7 611.45 59.7 611.6 59.5 612 59.35 612.35 59.05 612.5
L 58.5 612.7 60.95 612.7
Q 61.3 612.7 61.55 612.5 61.85 612.35 62 612 62.2 611.6 62.2 611.45
M 50.3 585.25
L 47.8 585.25 51.3 591.4 53.8 591.4 50.3 585.25
M 48.3 591.4
L 49.5 593.35 52 593.35 50.8 591.4 48.3 591.4
M 49 593.35
L 46.5 593.35 47.75 595.5 50.25 595.5 49 593.35
M 15 593.35
L 16.5 593.35 15.25 595.5 18.25 595.5 9.4 610.75
Q 9.3 611 9.3 611.45 9.3 611.85 9.4 612 9.55 612.3 9.9 612.5 10.25 612.7 10.55 612.7
L 55.45 612.7
Q 55.8 612.7 56.05 612.5 56.35 612.35 56.5 612 56.7 611.6 56.7 611.45 56.7 611.25 56.5 610.75
L 47.75 595.5 44.75 595.5 43.5 593.35 46.5 593.35 45.3 591.4 48.3 591.4 44.8 585.25 41.8 585.25 38 578.65 37 578.65 33.05 571.9
Q 33 571.65 32.65 571.4
L 32 571.25
Q 31.95 571.25 31.35 571.4
L 30.85 571.9 27 578.65 28 578.65 24.2 585.25 22.7 585.25 19.1 591.4 20.6 591.4 19.5 593.35 17.5 593.35 18.6 591.4 16.1 591.4 15 593.35
M 21.6 591.4
L 25.2 585.25 27.2 585.25 23.6 591.4 21.6 591.4 Z"/>
</g>

<g id="Layer0_14_MEMBER_0_MEMBER_0_MEMBER_0_FILL">
<path fill="#FF0000" fill-opacity="0" stroke="none" d="
M 0 70
L 70 70 70 0 0 0 0 70 Z"/>
</g>

<g id="Layer0_15_MEMBER_0_MEMBER_0_MEMBER_0_FILL">
<path fill="#FFFFFF" stroke="none" d="
M 49.5 31.65
Q 49.5 30.7 48.8 29.9 48.15 29.25 47.2 29.25
L 44.4 29.25 44.4 23.9
Q 44.4 20.45 41.7 17.75 38.8 14.85 34.9 14.75 31.1 14.75 28.1 17.65 25.35 20.55 25.35 23.9
L 25.35 29.25 22.75 29.25
Q 21.9 29.25 21.1 29.9 20.5 30.6 20.5 31.5
L 20.5 48.8
Q 20.5 49.85 21.1 50.5 21.85 51.1 22.75 51.1
L 47.2 51.1
Q 48.2 51.1 48.8 50.5 49.5 49.8 49.5 48.8
L 49.5 31.65
M 40.9 24
L 40.9 29.4 28.85 29.4 28.85 24
Q 28.85 22.05 30.5 20.3 32.2 18.4 34.9 18.4 37.55 18.4 39.25 20.3 40.9 22.05 40.9 24 Z"/>
</g>

<g id="Layer0_16_FILL">
<path fill="#663399" fill-opacity="0" stroke="none" d="
M 0 0
L 0 70 70 70 70 0 0 0 Z"/>
</g>

<g id="Layer0_17_FILL">
<path fill="#FFFFFF" stroke="none" d="
M 91.45 576.4
L 93 576.4
Q 91.35 578.15 90.25 580.15
L 88.75 580.15
Q 86.624609375 583.986328125 86.5 588.6
L 86.5 606.65 84.5 606.65 84.5 611.75 86.5 611.75 86.5 616.5
Q 91.2 620.3 95.85 616.5 97.5 615.25 99.15 614.85 102.2 614.1 105.2 616.5
L 105.25 616.5
Q 109.55 619.85 113.85 617 114.25 616.75 114.65 616.45 119.3 612.7 124.35 616.5
L 124.35 611.75 122.35 611.75 122.35 606.65 124.35 606.65 124.35 588.6
Q 124.225390625 583.986328125 122.1 580.15
L 123.6 580.15
Q 122.5 578.15 120.9 576.4
L 119.35 576.4
Q 119.0943359375 576.0970703125 118.8 575.8 113.25 570.3 105.4 570.3 97.6 570.3 92.05 575.8 91.7556640625 576.0970703125 91.45 576.4
M 88.65 592.8
Q 88.2216796875 592.1099609375 88.3 591.25 88.4638671875 590.303125 89.25 589.15 90.7 586.9 93.6 585.2 96.5 583.55 99.15 583.4 101.8 583.25 102.7 584.7 103.5 586.15 102.05 588.4 101.019140625 589.9640625 99.2 591.25 98.502734375 591.773046875 97.65 592.25 94.75 593.95 92.1 594.15 89.45 594.25 88.65 592.8
M 108.8 588.4
Q 107.3 586.15 108.15 584.7 109 583.25 111.65 583.4 114.3 583.55 117.25 585.2 120.15 586.9 121.6 589.15 122.3599609375 590.303125 122.5 591.25 122.6044921875 592.1099609375 122.2 592.8 121.35 594.25 118.7 594.15 116.05 593.95 113.15 592.25 112.31171875 591.773046875 111.6 591.25 109.830859375 589.9640625 108.8 588.4
M 112.6 603.5
Q 112.6 603.9 112.6 604.2 110.193359375 602.2283203125 107.9 601.4 104.58046875 600.2 101.5 601.4 99.365234375 602.2283203125 97.35 604.2 97.3 603.9 97.3 603.5 97.3 602.39453125 97.55 601.4 97.9615234375 600.0181640625 98.85 598.85 99.18671875 598.46328125 99.55 598.1 101.8 595.85 104.95 595.85 108.1 595.85 110.35 598.1 110.71328125 598.46328125 111 598.85 111.9384765625 600.0181640625 112.3 601.4 112.6 602.39453125 112.6 603.5 Z"/>
</g>

<g id="Layer0_18_FILL">
<path fill="#FFFFFF" stroke="none" d="
M 180.95 572.05
Q 178.144140625 571.35 175.05 571.35 171.9400390625 571.35 169.1 572.05
L 172.15 572.05
Q 169.3 572.75 166.75 574.15 164.85 575.2 163.15 576.65
L 160.1 576.65
Q 159.993359375 576.74921875 159.85 576.85 159.0673828125 577.5326171875 158.3 578.3 156.999609375 579.600390625 155.95 581 153.579296875 584.1265625 152.4 587.75 151.35 591.1775390625 151.35 595.05 151.35 595.2759765625 151.35 595.5 151.3669921875 596.4384765625 151.45 597.35
L 152.45 597.35
Q 152.55 598.35 152.7 599.3
L 151.7 599.3
Q 151.8689453125 600.2146484375 152.1 601.1 152.2091796875 601.528515625 152.3 601.95
L 153.85 601.95
Q 155.05 605.95 157.7 609.35
L 156.2 609.35
Q 157.15546875 610.5638671875 158.3 611.7 165.25 618.7 175.05 618.7 184.8 618.7 191.7 611.7 192.852734375 610.563671875 193.8 609.35
L 195.35 609.35
Q 198 605.95 199.25 601.95
L 197.7 601.95
Q 198.112890625 600.656640625 198.35 599.3
L 199.35 599.3
Q 199.5 598.35 199.6 597.35
L 198.6 597.35
Q 198.7 596.220703125 198.7 595.05 198.7 591.1775390625 197.6 587.75 196.4494140625 584.1265625 194.05 581 193.009765625 579.600390625 191.7 578.3 190.9380859375 577.5326171875 190.15 576.85 190.0322265625 576.74921875 189.9 576.65
L 192.95 576.65
Q 191.2 575.2 189.3 574.15 186.75 572.75 183.95 572.05
L 180.95 572.05
M 168.1 576.65
L 171.1 576.65
Q 174.3 575.45 178 575.45 181.7 575.45 184.95 576.65
L 181.9 576.65
Q 182.1703125 576.7458984375 182.4 576.85 185.8166015625 578.2373046875 188.65 581 188.7490234375 581.0990234375 188.85 581.2 191.8130859375 584.1630859375 193.25 587.75 194.6 591.1240234375 194.6 595.05 194.6 596.225390625 194.45 597.35
L 195.5 597.35
Q 195.35 598.35 195.2 599.3
L 194.15 599.3
Q 193.881640625 600.665625 193.4 601.95
L 194.9 601.95
Q 193.45 605.75 190.35 608.85 190.1 609.1 189.85 609.35
L 188.35 609.35
Q 182.7427734375 614.65 175 614.65 167.2572265625 614.65 161.65 609.35
L 163.15 609.35
Q 162.9 609.1 162.65 608.85 159.55 605.75 158.15 601.95
L 156.65 601.95
Q 156.4857421875 601.5294921875 156.35 601.1 156.0703125 600.2185546875 155.85 599.3
L 156.9 599.3
Q 156.7 598.35 156.6 597.35
L 155.55 597.35
Q 155.4701171875 596.4416015625 155.45 595.5 155.45 595.2759765625 155.45 595.05 155.45 591.1240234375 156.8 587.75 158.2126953125 584.1630859375 161.15 581.2 161.2509765625 581.0990234375 161.35 581 164.1833984375 578.2373046875 167.55 576.85 167.8296875 576.7458984375 168.1 576.65
M 173.7 578.1
Q 173.15 578.65 173.15 579.35
L 173.15 595.05 173.2 595.4
Q 173.25 595.6 173.35 595.85 173.45 596.1 173.7 596.35 173.9 596.55 174.15 596.65 174.35 596.8 174.6 596.85
L 174.9 596.9 184.45 596.9
Q 185.15 596.9 185.7 596.35 186.25 595.8 186.25 595.05 186.25 594.3 185.7 593.75 185.15 593.2 184.45 593.2
L 176.85 593.2 176.85 579.35
Q 176.85 578.65 176.35 578.1 175.8 577.55 175 577.55 174.25 577.55 173.7 578.1 Z"/>
</g>
</defs>

<g transform="matrix( 1, 0, 0, 1, 0,0) ">
<use xlink:href="#Layer0_0_MEMBER_0_MEMBER_0_MEMBER_0_FILL"/>
</g>

<g transform="matrix( 1, 0, 0, 1, 0,0) ">
<use xlink:href="#Layer0_1_MEMBER_0_MEMBER_0_MEMBER_0_FILL"/>
</g>

<g transform="matrix( 1, 0, 0, 1, 0,0) ">
<use xlink:href="#Layer0_2_MEMBER_0_MEMBER_0_MEMBER_0_FILL"/>
</g>

<g transform="matrix( 1, 0, 0, 1, 0,0) ">
<use xlink:href="#Layer0_3_MEMBER_0_MEMBER_0_MEMBER_0_FILL"/>
</g>

<g transform="matrix( 1, 0, 0, 1, 0,0) ">
<use xlink:href="#Layer0_4_MEMBER_0_MEMBER_0_MEMBER_0_FILL"/>
</g>

<g transform="matrix( 1, 0, 0, 1, 0,0) ">
<use xlink:href="#Layer0_5_MEMBER_0_MEMBER_0_MEMBER_0_FILL"/>
</g>

<g transform="matrix( 1, 0, 0, 1, 0,0) ">
<use xlink:href="#Layer0_6_MEMBER_0_MEMBER_0_MEMBER_0_FILL"/>
</g>

<g transform="matrix( 1, 0, 0, 1, 0,0) ">
<use xlink:href="#Layer0_7_MEMBER_0_MEMBER_0_MEMBER_0_FILL"/>
</g>

<g transform="matrix( 1, 0, 0, 1, 0,0) ">
<use xlink:href="#Layer0_8_MEMBER_0_MEMBER_0_MEMBER_0_FILL"/>
</g>

<g transform="matrix( 1, 0, 0, 1, 0,0) ">
<use xlink:href="#Layer0_9_MEMBER_0_MEMBER_0_MEMBER_0_FILL"/>
</g>

<g transform="matrix( 1, 0, 0, 1, 0,0) ">
<use xlink:href="#Layer0_10_MEMBER_0_MEMBER_0_MEMBER_0_FILL"/>
</g>

<g transform="matrix( 1, 0, 0, 1, 0,0) ">
<use xlink:href="#Layer0_11_MEMBER_0_MEMBER_0_MEMBER_0_FILL"/>
</g>

<g transform="matrix( 1, 0, 0, 1, 0,0) ">
<use xlink:href="#Layer0_12_MEMBER_0_MEMBER_0_MEMBER_0_FILL"/>
</g>

<g transform="matrix( 1, 0, 0, 1, 0,0) ">
<use xlink:href="#Layer0_13_MEMBER_0_MEMBER_0_MEMBER_0_FILL"/>
</g>

<g transform="matrix( 1, 0, 0, 1, 0,0) ">
<use xlink:href="#Layer0_14_MEMBER_0_MEMBER_0_MEMBER_0_FILL"/>
</g>

<g transform="matrix( 1, 0, 0, 1, 0,0) ">
<use xlink:href="#Layer0_15_MEMBER_0_MEMBER_0_MEMBER_0_FILL"/>
</g>

<g transform="matrix( 1, 0, 0, 1, 70,560) ">
<use xlink:href="#Layer0_16_FILL"/>
</g>

<g transform="matrix( 1, 0, 0, 1, 0,0) ">
<use xlink:href="#Layer0_17_FILL"/>
</g>

<g transform="matrix( 1, 0, 0, 1, 0,0) ">
<use xlink:href="#Layer0_18_FILL"/>
</g>
</svg>
