
<svg xmlns="http://www.w3.org/2000/svg" version="1.1" xmlns:xlink="http://www.w3.org/1999/xlink" preserveAspectRatio="none" x="0px" y="0px" width="126px" height="150px" viewBox="0 0 126 150">
<defs>
<g id="Symbol_39_0_Layer23_0_FILL">
<path fill="#000000" stroke="none" d="
M 113.45 33.25
Q 105.75 29.75 96.05 27.95
L 87.9 26.95 77.6 27.5
Q 70.3 27.05 63.75 29.05 57.35 31 49.1 35.95 42.6 39.85 37.1 47.1 34.2 50.85 32.75 53.6 30.8 56.85 28.7 62.95 24.65 75 24.25 90.05 24.3 90.65 19.25 95.55 14.25 100.55 14.25 101
L 18.2 100.6 22.85 99.5
Q 22.05 115.5 14.75 125.7 11.2 130.7 8.45 132.55 14.6 132.65 18.85 130.5 21.15 129.45 22 128.35 20.8 132.25 14.2 137.45
L 8.7 141.6
Q 14.1 142.35 19.5 140.95 24.55 139.6 28.45 136.7 30.15 146.75 33.1 154.7 37.05 165.7 42.75 169.85 43.3 170.3 43.2 168.3
L 42.95 165.6 45.95 168.85
Q 49.3 172.2 53.7 174
L 54.05 174.35 54.05 174.2 110.35 174.2
Q 114.444921875 172.3451171875 117.75 168.3 120 164.95 120.05 165.25 120.3 166.1 119.9 168.2 119.3 170.75 119.3 171.85 123.3 169.2 126.25 164.95
L 128.3 161.2 129 163.6
Q 129.3 165.25 129.75 166 132.2 162 135.2 155.7 140.8 143.8 141.65 135.35 142.55 125.85 141.4 119.3 139.8 112.9 139.25 107.55 142.2 111.8 146.75 114.8 151.05 117.65 150.9 116.25
L 143.5 97.45
Q 141 89.85 140.25 80.8 138.25 68 137.25 64 135.45 57.35 131.5 50.1 128.45 44.75 125 41.25 120.1 36.35 113.45 33.25 Z"/>
</g>

<g id="Layer1_0_FILL">
<path fill="#745334" stroke="none" d="
M 72 68
L 61.4 68
Q 59.5 68 58.05 69.25 56.65 70.5 56.4 72.35
L 41 190 55 187 72 68
M 265.6 68
L 255 68 272 187 286 190 270.6 72.35
Q 270.35 70.5 268.9 69.25 267.5 68 265.6 68 Z"/>
</g>

<g id="Layer1_1_FILL">
<path fill="#FFD52B" stroke="none" d="
M 248.4 74.9
Q 250 75 251.25 75.95 252.5 76.9 253 78.45
L 269 187 276 187 260 71.55
Q 259.55 69.95 258.25 68.95 256.95 67.95 255.35 67.9
L 164 65.65 72.65 67.9
Q 71 67.95 69.7 68.95 68.4 69.95 68 71.55
L 52 187 59 187 75 78.45
Q 75.45 76.9 76.7 75.95 77.95 75 79.55 74.9
L 164 72.65 248.4 74.9 Z"/>
</g>

<g id="Layer1_2_FILL">
<path fill="#1F2A3E" stroke="none" d="
M 63 162
L 35 192 35 242
Q 35 244.1 36.45 245.55 37.9 247 40 247
L 63 247 63 162
M 293 192
L 265 162 265 247 288 247
Q 290.05 247 291.55 245.55 293 244.1 293 242
L 293 192 Z"/>
</g>

<g id="Layer1_3_FILL">
<path fill="#D7AD3F" stroke="none" d="
M 276.05 206.8
L 249 198 243 270 283 260 283 216.3
Q 282.95 213 281.05 210.4 279.15 207.75 276.05 206.8
M 51.9 206.8
Q 48.8 207.75 46.9 210.4 45 213.05 45 216.3
L 45 260 85 270 82 197 51.9 206.8 Z"/>
</g>

<g id="Layer1_4_FILL">
<path fill="#167990" stroke="none" d="
M 63.15 196
L 62.05 196.1
Q 57.95 196.55 55.35 199.8 52.75 203 53.2 207.1
L 63 263.1
Q 63.4 266.95 66.3 269.5 69.15 272.05 73 272
L 92 277 83 192 63.15 196
M 264.8 196
L 248 192 236 277 255 272
Q 258.85 272 261.65 269.45 264.5 266.9 264.9 263.1
L 274.75 207.1
Q 275.2 203 272.6 199.8 270 196.55 265.9 196.1
L 264.8 196 Z"/>
</g>

<g id="Layer0_0_FILL">
<path fill="#D3D3D3" stroke="none" d="
M 97.75 46.9
Q 96.95 43 94.7 44.2 81.25 51.2 69.2 54.9 58.8 58.1 59.8 56.65 62.8 53.4 64.9 51.05 68.95 46.55 67.15 47.65 49.3 58.2 28.45 61.5 27.75 70.1 27.7 73.4 27.7 76.3 28.15 81.4 28.45 84.85 29.75 88.3 31.15 92.2 31.3 93.15 31.95 96.95 32.15 104.2 32.35 111.5 32.8 114.35 32.8357421875 114.930859375 32.9 115.5 33.445703125 121.3013671875 35.95 125.9 37.3 128.4 38.6 129.6 40.95 131.85 41.5 132.45 42 133 45.05 136.6 50.7 143.25 54.45 146.05 58.45 149 62.05 149 65.3 149 70.4 145.15 71.15 144.55 76.8 139.6 78.3 138.25 80.9 135.45 84.2 131.95 86.2 129.8 86.95 129.15 87.95 126.85 89.705078125 122.6470703125 90.7 115.5 90.819921875 114.91015625 90.9 114.3 91.5 107.95 91.9 104.35 92.6 97.8 94.4 92.75 96.3 87.7 96.9 84
L 97.1 81.3
Q 97.75 75.95 98 63.35
L 98.1 51.85
Q 97.9 47.85 97.75 46.9 Z"/>
</g>
</defs>

<g transform="matrix( 0.84063720703125, 0, 0, 0.84063720703125, -6.55,-16.65) ">
<g transform="matrix( 1, 0, 0, 1, 0,0) ">
<use xlink:href="#Symbol_39_0_Layer23_0_FILL"/>
</g>
</g>

<g transform="matrix( 0.4203338623046875, 0, 0, 0.420257568359375, -6.5,-16.55) ">
<use xlink:href="#Layer1_0_FILL"/>
</g>

<g transform="matrix( 0.4203338623046875, 0, 0, 0.420257568359375, -6.5,-16.55) ">
<use xlink:href="#Layer1_1_FILL"/>
</g>

<g transform="matrix( 0.4203338623046875, 0, 0, 0.420257568359375, -6.5,-16.55) ">
<use xlink:href="#Layer1_2_FILL"/>
</g>

<g transform="matrix( 0.4203338623046875, 0, 0, 0.420257568359375, -6.5,-16.55) ">
<use xlink:href="#Layer1_3_FILL"/>
</g>

<g transform="matrix( 0.4203338623046875, 0, 0, 0.420257568359375, -6.5,-16.55) ">
<use xlink:href="#Layer1_4_FILL"/>
</g>

<g transform="matrix( 1, 0, 0, 1, 0,0) ">
<use xlink:href="#Layer0_0_FILL"/>
</g>
</svg>
