<svg id="Camada_1" data-name="Camada 1" xmlns="http://www.w3.org/2000/svg" viewBox="0 0 370 80"><defs><style>.cls-1{fill:#f2f2f2;fill-rule:evenodd;}</style></defs><path id="Layer" class="cls-1" d="M194.8,40a25.39,25.39,0,0,1,0,7.8,34.93,34.93,0,0,1-1.4,6.7,47.65,47.65,0,0,1-2.7,6.4,14.39,14.39,0,0,1-.9,1.7,8.82,8.82,0,0,1-1,1.7c-.33.6-.67,1.17-1,1.7s-.77,1.07-1.1,1.6a9.82,9.82,0,0,1-1.1,1.3c-.33.4-.7.8-1.1,1.2s-.8.77-1.2,1.1a9.82,9.82,0,0,1-1.3,1.1q-.41.3-.9.6t-.9.6q-.49.3-.9.6l-1,.6a6.23,6.23,0,0,0-.7.4,4.34,4.34,0,0,0-.8.3,7,7,0,0,0-.7.3l-.8.2a6.33,6.33,0,0,1-1,.3l-1.1.2a4.85,4.85,0,0,1-1,.1,6.41,6.41,0,0,1-1.1.1h-1.7a3.59,3.59,0,0,1-.9-.1,4.34,4.34,0,0,1-.9-.1,3.35,3.35,0,0,1-1.5-1.4c-.3-.7-.3-3.4.1-8.3.3-4,1-11.1,1.4-15.7s1-10.1,1.3-12c.07-.67.13-1.33.2-2s.13-1.37.2-2.1v-2a20.25,20.25,0,0,0,.1-2.1l-2.1-.2c-1.2-.1-5.8-.4-10.4-.5s-8.6-.4-9.2-.6c-1-.1-1.3.1-1.7,1.7l-.2,1a4.85,4.85,0,0,1-.1,1,4.85,4.85,0,0,0-.1,1,4.85,4.85,0,0,0-.1,1,9.42,9.42,0,0,1-.1,1.4,9.42,9.42,0,0,1-.1,1.4,7.54,7.54,0,0,0-.1,1.3,11.66,11.66,0,0,1-.3,1.4,20.29,20.29,0,0,0-.4,3.8c.2.1,2.6.5,5.5.9a37.52,37.52,0,0,1,6.9,1.5,9.22,9.22,0,0,1,1.9,1.4,4.68,4.68,0,0,1,.2,2.2,1.8,1.8,0,0,1-.1.6l-.2.6a2.8,2.8,0,0,1-.3.6,2.8,2.8,0,0,1-.3.6c-.8.8-1.4.9-14.3.2l-.9,7.1c-.4,4-.8,7.9-.8,10.4h5.8a61.06,61.06,0,0,1,7.5.3c.2.07.43.13.7.2l.6.4.5.5a1.3,1.3,0,0,1,.3.6,2.35,2.35,0,0,1,0,2.3,1.31,1.31,0,0,1-.3.5,1.74,1.74,0,0,1-.3.4l-.4.4c-.2.13-.37.23-.5.3a21.77,21.77,0,0,1-4.8.8c-2.2.1-6.3.3-9.2.5-4.2.2-5.7.1-6.9-.5l-.6-.4a2.32,2.32,0,0,1-.5-.4,3.12,3.12,0,0,0-.5-.4l-.4-.6c-.3-.7-.2-2.8.3-7.1.4-3.3,1.3-10.4,2-15.7s1.8-13.8,2.5-18.9,1.5-9.7,1.9-10.3l.4-.4a1,1,0,0,1,.5-.4,1.31,1.31,0,0,1,.5-.3.69.69,0,0,1,.5-.2c.6-.1,1.9-.3,2.9-.4s7.5-.1,14.6,0,14.7.2,16.9.4a18.87,18.87,0,0,1,6.2,1.2c.4.2.77.4,1.1.6a6.66,6.66,0,0,1,1,.5c.4.2.77.4,1.1.6a8.67,8.67,0,0,1,1,.7,30,30,0,0,1,3.9,4,34,34,0,0,1,2.9,4.8,33.45,33.45,0,0,1,1.5,5.4Zm-7.6,8.2a7.74,7.74,0,0,0,0-1.8V44.5c-.07-.6-.17-1.23-.3-1.9s-.17-1.2-.3-1.8a23.21,23.21,0,0,0-2.2-5.2,7.15,7.15,0,0,0-.7-.8l-.6-.8a7.15,7.15,0,0,0-.8-.7,7.15,7.15,0,0,0-.7-.8,6.23,6.23,0,0,1-.7-.4,6.23,6.23,0,0,0-.7-.4,2.35,2.35,0,0,0-.7-.3,2.35,2.35,0,0,0-.7-.3l-1.2-.3-.7,6.9c-.3,3.7-.9,9.8-1.3,13.5s-.8,8.8-1,11.3c-.3,4.3-.2,4.6.6,4.3a7,7,0,0,1,.7-.3,6.23,6.23,0,0,1,.7-.4l.6-.4a3.78,3.78,0,0,1,.6-.5l1-.8c.27-.27.57-.53.9-.8s.57-.53.9-.8.53-.57.8-.9a31.22,31.22,0,0,0,3.8-5.7,16.94,16.94,0,0,0,2-8Zm24.2-14.1.4.4a2.8,2.8,0,0,1,.3.6,1.1,1.1,0,0,1,.2.6c.2.8-.3,5.9-1.2,11.5s-1.6,11.2-1.7,12.4-.7,5.2-1,8.7A58.62,58.62,0,0,1,207,76l-.4.6a3.12,3.12,0,0,1-.5.4,2.8,2.8,0,0,1-.6.3,1.8,1.8,0,0,1-.6.1,5.46,5.46,0,0,1-3.4-1.1c-1.1-.8-1.9-1.7-1.9-2.4V70.6c.1-1.3,1-9.1,2.1-17.4s2.2-15.9,2.5-17a3.78,3.78,0,0,1,1.4-2.3,5,5,0,0,1,2.4-.6,155494425599147,155494425599147,0,0,0,1.4.2,2.11,2.11,0,0,1,.7.1c.27.07.5.13.7.2a2.8,2.8,0,0,1,.6.3ZM22.7,24.4c-.2,1.8-1.1,6.3-2,9.9s-3,12.2-4.5,18.9-3.3,14.2-3.9,16.6l-.4,1.6a9.77,9.77,0,0,0-.5,1.5,11.19,11.19,0,0,1-.5,1.4q-.3.8-.6,1.5a4.12,4.12,0,0,1-1.6,1.8l-.4.2a.85.85,0,0,1-.4.1,1.57,1.57,0,0,1-.5.1H7a5,5,0,0,1-2.5-1C3.2,76.2,3,75.7,3,74.1a35.27,35.27,0,0,1,.7-5.6c.4-2,1.2-5.4,1.7-7.6s1.5-6,2-8.4,1.1-5.3,1.3-6.3.8-3.9,1.5-6.7,1.8-7.4,2.4-10.4c.8-3.4,1-5.7.8-6-.13-.07-.2-.13-.2-.2a1.29,1.29,0,0,0-.2-.3.85.85,0,0,1-.1-.4v-.3a3.43,3.43,0,0,1,.7-1.9c.7-.9,1.3-1.1,4-1.1s3.5.2,4.3,1.1C22.9,21.1,23,21.5,22.7,24.4ZM223.8,9.7a3.32,3.32,0,0,1-.7.7,4.61,4.61,0,0,1-.7.6q-.41.3-.9.6a4.34,4.34,0,0,1-.8.3,4,4,0,0,1-.9.3,4,4,0,0,1-.9.3l-.8.2a8,8,0,0,0-2,.6,40.44,40.44,0,0,0-1.4,6.1c-1,5-1.3,5.9-2.6,7.1s-1.8,1.4-4.5,1.4-3.1-.2-4.5-1.5c-1.2-1.3-1.4-1.9-1.4-3.9a5.79,5.79,0,0,1,.6-3.1l.4-.4.5-.5a3.12,3.12,0,0,0,.5-.4,1.31,1.31,0,0,0,.5-.3c.8-.5,2.6-.9,7.1-1.1l.8-4.2a57,57,0,0,1,1.5-6.2,10.48,10.48,0,0,1,1.1-2.7c.4-.4,1.9-.6,10.5-.3l.2,2v.9a2.74,2.74,0,0,1-.2,1,4,4,0,0,1-.3.9,3.93,3.93,0,0,1-.5.9,6.22,6.22,0,0,1-.6.7ZM61,21a4.65,4.65,0,0,1,.6,2.4c.1.9-.9,5.9-2.1,10.9s-3,12.3-3.9,16.2-1.9,8-2.2,9.4-.9,3.7-1.3,5.2-.8,4.2-1.2,6-1,3.5-1.4,3.8a6.08,6.08,0,0,1-2.3,1.2,5,5,0,0,1-3.6-.1,3.93,3.93,0,0,1-.9-.5,3.93,3.93,0,0,1-.9-.5l-.7-.7a6.22,6.22,0,0,1-.6-.7c-1.1-1.6-1.2-3-2.2-14.4-.6-6.8-1.2-13-1.5-13.6-.3-.9-.5-1-.7-.4-.2.4-.8,3.6-1.6,7S32.6,61,31.9,64.1s-1.7,7.3-2.2,9.1c-.9,2.7-1.4,3.6-2.5,4.1a2.8,2.8,0,0,1-.6.3,3.69,3.69,0,0,1-.5.2,1.8,1.8,0,0,1-.6.1,1.8,1.8,0,0,1-.6.1h-.4l-.4-.2a.4.4,0,0,1-.3-.1,1.74,1.74,0,0,1-.4-.3,3.75,3.75,0,0,1-.6-2.1,83.78,83.78,0,0,1,1.6-9.2c.8-4.2,1.7-8.8,2-10.2s.6-3.7.9-5.2,1.1-5.9,1.9-9.9,2-9.1,2.6-11.4c.13-.47.27-1,.4-1.5s.27-1,.4-1.5.3-1,.5-1.5.3-1,.5-1.5A7.14,7.14,0,0,1,35.5,21l.6-.2a3.69,3.69,0,0,1,.5-.2,1.8,1.8,0,0,1,.6-.1h1.3l.6.2a2.8,2.8,0,0,1,.6.3,3.12,3.12,0,0,1,.5.4c.9.8,1,1.6,1,6.1,0,2.8.4,8,.8,11.5s1.2,8.8,1.7,11.7S45,56.4,45.2,57s.6,1.2.8,1.2,1.4-3.9,2.6-8.6,2.6-11.3,3.3-14.5,1.5-7.1,1.9-8.5a5.69,5.69,0,0,1,.3-1.1c.13-.4.27-.77.4-1.1a5.27,5.27,0,0,1,.5-1.1c.13-.33.3-.7.5-1.1,1-1.5,1.4-1.8,3-1.8A4.78,4.78,0,0,1,61,21Zm32.3,6.4c.13.33.27.7.4,1.1a5.69,5.69,0,0,1,.3,1.1,5.69,5.69,0,0,1,.3,1.1c.07.33.13.7.2,1.1s.13.7.2,1.1a4.85,4.85,0,0,0,.1,1v1.8a2.11,2.11,0,0,1-.1.7,2.11,2.11,0,0,1-.1.7c-.07.2-.13.43-.2.7-.4.8-1,1-2.8,1-2,0-2.3-.2-2.9-1.7l-.4-1-.4-1a6.33,6.33,0,0,0-.3-1,6.33,6.33,0,0,0-.3-1c-.4-1.5-1.1-2.8-3.4-4.5l-1.8,1a5,5,0,0,0-.8.5l-.7.7a3.32,3.32,0,0,0-.7.7,3,3,0,0,0-.6.8,5.88,5.88,0,0,0-.7,1.1c-.2.33-.4.7-.6,1.1s-.4.77-.6,1.1a8.73,8.73,0,0,0-.5,1.2,12.34,12.34,0,0,0-.7,1.7c-.27.6-.5,1.17-.7,1.7L74.9,42c-.2.6-.4,1.17-.6,1.7-.6,2.4-1.6,6.1-2,8.5a10.9,10.9,0,0,0-.4,2c-.07.67-.13,1.37-.2,2.1a19.13,19.13,0,0,0-.1,2v2.1a15.41,15.41,0,0,0,1.3,6.1A7.36,7.36,0,0,0,75,69.1l.4.2a1.57,1.57,0,0,1,.5.1h.4a1.06,1.06,0,0,0,.5-.1A5.9,5.9,0,0,0,79,67.2a32,32,0,0,0,2.8-5.6,19.4,19.4,0,0,1,2.7-4.7l.5-.5a2.8,2.8,0,0,1,.6-.3,3.12,3.12,0,0,0,.5-.4c.2-.07.43-.13.7-.2a2.1,2.1,0,0,1,2.2.8c.9.9,1,1.5.8,3.6a8,8,0,0,1-.3,1.3,11.66,11.66,0,0,1-.3,1.4l-.4,1.2c-.2.47-.4.9-.6,1.3a13.05,13.05,0,0,1-.7,1.4,13.05,13.05,0,0,1-.7,1.4c-.27.47-.53.9-.8,1.3s-.57.93-.9,1.4l-.8,1.2-1,1.2c-.33.33-.67.7-1,1.1l-1,1a9.92,9.92,0,0,1-3.7,2.2,12.5,12.5,0,0,1-4.5-.8c-.47-.2-.9-.4-1.3-.6s-.9-.53-1.3-.8a6.42,6.42,0,0,1-1.2-.8c-.33-.27-.7-.6-1.1-1s-.57-.67-.9-1l-.8-1.2-.6-1.2c-.2-.47-.4-.9-.6-1.3-.7-2.2-.9-4.1-.9-9.2A94.29,94.29,0,0,1,65,49c.4-2.2,1.5-6.3,2.4-9.2l.8-2.2.8-2.2c.33-.73.63-1.47.9-2.2s.67-1.43,1-2.1.7-1.2,1.1-1.8.7-1.07,1.1-1.6.83-1.07,1.3-1.6a14.26,14.26,0,0,1,1.3-1.5A13.62,13.62,0,0,1,80.5,21l.8-.2c.33-.07.63-.13.9-.2a4.34,4.34,0,0,1,.9-.1H84a2,2,0,0,1,.9,0,3.59,3.59,0,0,1,.9.1,7.88,7.88,0,0,1,.9.3,4.34,4.34,0,0,1,.8.3,5,5,0,0,1,.8.5,5,5,0,0,1,.8.5,2.54,2.54,0,0,1,.7.5,6.22,6.22,0,0,1,.7.6l.7.7.6.8a6.22,6.22,0,0,1,.6.7c.13.27.3.57.5.9l.4,1Zm35.4-.3.6,1a5.27,5.27,0,0,0,.5,1.1c.13.4.27.77.4,1.1a18.05,18.05,0,0,1,.3,5.3c-.07.47-.13,1-.2,1.5s-.27,1-.4,1.5a11.19,11.19,0,0,1-.5,1.4,5.74,5.74,0,0,1-.6,1.5,7.69,7.69,0,0,1-.8,1.4c-.27.4-.53.83-.8,1.3s-.67.9-1,1.3-.7.8-1.1,1.2a6.07,6.07,0,0,1-1.2,1.1,9.36,9.36,0,0,1-1.3.9,7.69,7.69,0,0,1-1.4.8,10.3,10.3,0,0,1-1.5.7c-2.6,1-3,1.4-2.7,2.2.1.6.6,2.5,1.1,4.3s1.7,5.4,2.7,8.1,2.5,6.6,3.3,8.6a24.56,24.56,0,0,1,1.5,4.5v.4a.85.85,0,0,0-.1.4,1.29,1.29,0,0,1-.2.3,1.74,1.74,0,0,1-.3.4,3.29,3.29,0,0,1-1.9.6,38873606399637.79,38873606399637.79,0,0,1-1.4-.2c-.27-.07-.5-.13-.7-.2a2.35,2.35,0,0,1-.7-.3c-1-.5-1.7-1.6-2.8-4.3-.7-2-1.7-4.9-2.1-6.4s-1.7-5.9-2.9-9.8-2.6-7.3-3-7.5a1,1,0,0,0-1.1.1c-.3.2-.9,2.4-1.5,4.7s-2.1,8.1-3.2,12.7c-1.1,4.9-2.3,8.9-2.8,9.4l-.6.4-.6.2a1.25,1.25,0,0,1-.7.2h-.7a4,4,0,0,1-2.4-.6,4.37,4.37,0,0,1-.6-2.4c0-.9.5-4,1-6.9s1.2-6.5,1.5-8,1.1-5.5,1.8-8.9,1.6-7.5,2-9.2,1.2-5.6,1.8-8.7a40.86,40.86,0,0,0,1.1-6.1,1.8,1.8,0,0,0-1.3-.4.62.62,0,0,1-.5,0,.85.85,0,0,1-.4-.1,3.69,3.69,0,0,0-.5-.2,1.29,1.29,0,0,1-.3-.2,5.62,5.62,0,0,1-1-2.2,2.8,2.8,0,0,1-.1-.7,3.13,3.13,0,0,1,.1-.8,1.25,1.25,0,0,1,.2-.7,2.35,2.35,0,0,1,.3-.7c.8-1.3.9-1.3,5.7-1.3,2.6,0,6.9.2,9.5.4a28.15,28.15,0,0,1,7.4,1.6,10.65,10.65,0,0,1,1.2.7,10.65,10.65,0,0,1,1.2.7c.33.27.67.57,1,.9s.67.57,1,.9a8.67,8.67,0,0,1,.7,1ZM121.9,32l-.8-.6-.8-.6c-.33-.2-.63-.37-.9-.5l-1-.4-.9-.2c-.27-.07-.57-.13-.9-.2a4.34,4.34,0,0,1-.9-.1h-.9c-1.2,0-1.7.3-2,1.1a58,58,0,0,0-1.8,7.2c-.6,3.3-1.2,6.3-1.2,6.6s.9.5,1.9.5a6.41,6.41,0,0,1,1.1-.1,4.85,4.85,0,0,0,1-.1l1-.2a3,3,0,0,0,1.1-.2,6.33,6.33,0,0,0,1-.3,6.66,6.66,0,0,0,1-.5q.5-.3.9-.6a7.15,7.15,0,0,0,.8-.7,12.63,12.63,0,0,0,2.4-3,4.34,4.34,0,0,0,.3-.8,4,4,0,0,0,.3-.9l.2-.8c.07-.33.13-.63.2-.9C123.3,33.8,123.2,33.4,121.9,32Zm167.7-4.7.6,1.2c.2.4.4.83.6,1.3a7.16,7.16,0,0,1,.5,1.3c.8,2.5,1,4.3.9,11.7,0,8-.1,9-1.4,12.9-.2.73-.43,1.47-.7,2.2s-.57,1.47-.9,2.2a22.1,22.1,0,0,1-.9,2.1l-1,2.2a21.15,21.15,0,0,1-5.1,7.3,13.64,13.64,0,0,1-6.7,3.9,13.14,13.14,0,0,1-6.3.7,3.87,3.87,0,0,1-1.2-.2,5.52,5.52,0,0,1-1.2-.3,8.73,8.73,0,0,1-1.2-.5c-.4-.2-.77-.4-1.1-.6a11.54,11.54,0,0,1-3.5-4.4c-1.3-2.8-1.4-3.3-1.6-10.4-.2-6.2,0-8.3.8-12.4.13-.73.3-1.47.5-2.2s.3-1.47.5-2.2l.6-2.2q.3-1,.6-2.1a62.73,62.73,0,0,1,2.6-6.7,10.3,10.3,0,0,1,.7-1.5l.8-1.4a7.66,7.66,0,0,1,.9-1.4l1-1.4a25.77,25.77,0,0,1,3.5-3.7,5,5,0,0,1,.8-.5l.8-.4.8-.4a4,4,0,0,1,.9-.3,4.34,4.34,0,0,1,.8-.3,81643310277593.16,81643310277593.16,0,0,1,1.8-.2,3.13,3.13,0,0,1,.8.1,19.72,19.72,0,0,1,3.5.7,4,4,0,0,1,.9.3c.33.13.63.27.9.4l.8.4a5,5,0,0,1,.8.5,4.72,4.72,0,0,1,.9.7c.33.27.63.5.9.7s.53.57.8.9a7.15,7.15,0,0,1,.7.8l.8,1.2Zm-5.2,22.9c.2-1.13.37-2.23.5-3.3s.1-2.27.1-3.4,0-2.27-.1-3.4-.3-2.23-.5-3.3a5.69,5.69,0,0,0-.3-1.1,11,11,0,0,0-.3-1.1l-.4-1-.4-1a6.23,6.23,0,0,0-.4-.7,3.78,3.78,0,0,0-.5-.6l-.6-.6a3.78,3.78,0,0,0-.6-.5l-.6-.4-.6-.2c-.27-.07-.5-.13-.7-.2a2.11,2.11,0,0,1-.7-.1,6.5,6.5,0,0,0-3,1.1q-1.65,1.2-3.6,5.1c-.27.6-.53,1.23-.8,1.9l-.8,1.8a15.22,15.22,0,0,1-.7,1.9c-.2.6-.4,1.23-.6,1.9a15.06,15.06,0,0,0-.5,1.9,15.06,15.06,0,0,0-.5,1.9c-.13.67-.23,1.3-.3,1.9s-.23,1.33-.3,2-.23,1.37-.3,2.1,0,1.37-.1,2.1a20.25,20.25,0,0,0,.1,2.1,11,11,0,0,0,.2,2.1,32.48,32.48,0,0,0,1.3,6.1c.6,1.5,1,1.9,2.2,1.9a115239099825511.56,115239099825511.56,0,0,1,1.6-.2c.2-.07.43-.13.7-.2a4.34,4.34,0,0,1,.8-.3l.8-.4a6.23,6.23,0,0,0,.7-.4l.8-.4a6.23,6.23,0,0,0,.7-.4,15.8,15.8,0,0,0,2.9-2.9c.27-.47.53-.9.8-1.3a13.05,13.05,0,0,0,.7-1.4,13.05,13.05,0,0,0,.7-1.4l.6-1.4c.7-1.9,1.6-4.7,2-6.2ZM254.7,35.8c.2,2.8,0,3.7-1.3,6.5a19.51,19.51,0,0,1-3.1,5c-.33.33-.67.63-1,.9s-.67.63-1,.9-.7.53-1.1.8-.7.53-1.1.8l1.6.7a5,5,0,0,1,.8.5,6.22,6.22,0,0,1,.7.6,6,6,0,0,1,1.3,1.3q.3.5.6.9l.6,1a6.66,6.66,0,0,0,.5,1l.4,1c.13.33.27.7.4,1.1l.2,1.2a7.25,7.25,0,0,1,0,2.4,4.9,4.9,0,0,1-.2,1.3,4.35,4.35,0,0,1-.4,1.2,8.73,8.73,0,0,1-.5,1.2,5.88,5.88,0,0,1-.7,1.1,23.19,23.19,0,0,1-4.7,4.7,59.63,59.63,0,0,1-7.8,4.6c-3.9,1.8-5.3,2.3-8.2,2.4a18.51,18.51,0,0,1-4.9-.1,6.33,6.33,0,0,1-2.8-1.9c-1.3-1.4-1.5-1.9-1.5-4.8V70.6a11.44,11.44,0,0,0,.1-1.5c.07-.53.13-1,.2-1.5s.13-1,.2-1.5c.3-1.5.5-3.6.7-4.7s.3-2.8.5-3.7.6-4.7,1-8.2.9-7.6,1.1-9,.3-3.9.6-5.7.6-4.1.8-5.3c.3-2,.1-2.2-1.1-2.8a1.3,1.3,0,0,1-.6-.3,1.7,1.7,0,0,1-.5-.5,2.8,2.8,0,0,1-.3-.6,2.11,2.11,0,0,1-.1-.7,3.39,3.39,0,0,1,1.1-2.8c1.1-1.3,1.5-1.4,4.8-1.4,2,0,5.8.3,8.4.6a25.51,25.51,0,0,1,6.7,1.4l.8.4a3.93,3.93,0,0,1,.9.5,5,5,0,0,1,.8.5c.2.13.43.3.7.5.7.6,1.9,1.7,2.7,2.4a4.72,4.72,0,0,1,.7.9q.3.41.6.9a2.63,2.63,0,0,1,.6.9l.6,1a24.07,24.07,0,0,1,1.2,5.4Zm-9.4,25V59.3a3.13,3.13,0,0,1-.1-.8,6.46,6.46,0,0,0-1.7-2.6l-.8-.6-.8-.6a3.93,3.93,0,0,0-.9-.5,3.93,3.93,0,0,0-.9-.5,5.27,5.27,0,0,0-1.1-.5,92481412589635.64,92481412589635.64,0,0,0-2.4-.6l-1.2-.2-2.7-.3-1.1,8.4c-.9,6.5-1,8.5-.5,8.7a7,7,0,0,0,2.6.4,12.57,12.57,0,0,0,4.6-1.2,10.65,10.65,0,0,1,1.2-.7l1.2-.8c.4-.27.77-.53,1.1-.8s.77-.67,1.1-1a9.35,9.35,0,0,0,2.3-3.6,2.11,2.11,0,0,1,.1-.7Zm3.1-23.6a6.41,6.41,0,0,1-.1-1.1l-.2-1a6.33,6.33,0,0,0-.3-1,6.33,6.33,0,0,1-.3-1c-.2-.33-.37-.63-.5-.9l-.6-.8a6.22,6.22,0,0,0-.6-.7l-.7-.7a12.89,12.89,0,0,0-3.9-1.9c-1.4-.4-2.7-.7-2.8-.7a3.87,3.87,0,0,1-1.1.3,2.2,2.2,0,0,0-1.1,1.8c-.2.9-.6,3.9-1,6.8s-.8,6.1-.9,7.2l-.1,2a47.58,47.58,0,0,0,7.6.1,10.33,10.33,0,0,0,3.4-2,10.53,10.53,0,0,0,2.4-3,10,10,0,0,0,.8-3.4Zm76.2,35.2c.7,2,.7,2.2-.5,3.4a3.78,3.78,0,0,1-.6.5,6.23,6.23,0,0,1-.7.4,4.34,4.34,0,0,1-.8.3h-1.4a2.8,2.8,0,0,0-.7-.1c-.2-.07-.43-.13-.7-.2a2.8,2.8,0,0,0-.6-.3,12.34,12.34,0,0,1-2.2-3.4c-.6-1.5-2.1-5.1-3.2-8.1s-2-6-2.1-6.6-.4-1.1-.7-1.1a17.25,17.25,0,0,0-2.7,4.3c-1.2,2.4-3.2,6.2-4.4,8.6a36.47,36.47,0,0,1-3.5,5.3,3.9,3.9,0,0,1-1.7,1.1,1.57,1.57,0,0,1-.5-.1.85.85,0,0,1-.4-.1,3.69,3.69,0,0,1-.5-.2,3.69,3.69,0,0,0-.5-.2c-.13-.07-.3-.17-.5-.3a3.12,3.12,0,0,0-.5-.4,3.12,3.12,0,0,0-.4-.5c-.13-.2-.23-.37-.3-.5-.4-.9-.1-2,1.5-5.5,1-2.4,2.6-5.7,3.4-7.3s2.6-5.3,6.3-13.3l-1.9-5.3c-1.1-2.9-2.9-8-4.1-11.4a46.2,46.2,0,0,1-2.3-7.5,2.32,2.32,0,0,1,1.1-2.2,4.17,4.17,0,0,1,3.2-.5,6.93,6.93,0,0,1,2.5.7,12,12,0,0,1,1.6,3c.6,1.5,1.9,5.2,3,8.2s2.3,5.4,2.6,5.4,2-3.3,3.8-7.4,3.7-8,4.4-8.6a2.54,2.54,0,0,1,.7-.5,4.34,4.34,0,0,1,.8-.3,1.82,1.82,0,0,1,.8-.2,3.13,3.13,0,0,1,.8-.1,4.45,4.45,0,0,1,2.8.9,2.93,2.93,0,0,1,.9,1.6,62.51,62.51,0,0,1-3.1,7.5c-1.7,3.6-4,8.8-5.2,11.4a30.45,30.45,0,0,0-2.2,5.3c0,.3,1.5,4.7,3.3,9.7s3.5,9.9,4,10.8,1,2.7,1.4,3.8Z"/></svg>